<?xml version="1.0" encoding="iso-8859-1"?>
<!-- Generator: Adobe Illustrator 19.0.0, SVG Export Plug-In . SVG Version: 6.00 Build 0)  -->
<svg version="1.1" id="Capa_1" xmlns="http://www.w3.org/2000/svg" xmlns:xlink="http://www.w3.org/1999/xlink" x="0px" y="0px"
	 viewBox="0 0 295.496 295.496" style="enable-background:new 0 0 295.496 295.496;" xml:space="preserve">
<g>
	<path d="M231.811,78.396c-0.986,0-2.302,0.058-3.285,0.172c-4.218,0.491-7.71,2.021-11.71,4.319v-5.199
		c0-1.479,0.367-2.928,0.13-4.343c7.405-7.396,12.103-16.241,12.103-25.845c0-26.636-32.71-47.5-74.522-47.5
		S79.984,20.864,79.984,47.5c0,8.124,3.07,15.705,8.491,22.326c-0.019,0.064-0.206,0.126-0.226,0.189
		c-0.695,2.329-1.434,4.771-1.434,7.266v86.04l-5.526-5.578c-4.741-4.67-10.832-7.238-17.519-7.238
		c-6.755,0-12.999,2.62-17.757,7.379c-4.759,4.758-7.332,11.099-7.332,17.852c0,6.436,2.404,12.496,6.745,17.17l53.865,71.028
		l1.153,15.265c0.687,9.139,8.406,16.297,17.57,16.297l98.469-0.078c8.805-0.011,16.306-6.598,17.452-15.323l2.387-18.182
		c7.557-12.229,12.78-28.446,16.273-48.228c3.05-17.273,4.22-37.775,4.22-60.934v-48.976
		C256.815,89.781,245.806,78.396,231.811,78.396z M154.568,12c33.913,0,62.563,16.257,62.563,35.5c0,4.857-1.831,9.524-5.106,13.788
		c0.022,0.111,0.051,0.215,0.075,0.324c-0.083-0.106-0.159-0.219-0.244-0.324c-4.038-4.987-9.795-8.432-16.528-9.216
		c-0.983-0.114-1.94-0.172-2.926-0.172c-5.229-0.001-10.2,1.579-14.415,4.514c-0.924-12.218-10.207-22.2-22.328-23.61
		c-0.982-0.114-1.975-0.173-2.96-0.173c-6.765,0-13.133,2.644-17.934,7.445c-4.424,4.424-7.017,10.181-7.396,16.35
		c-3.31-2.318-7.202-3.859-11.441-4.354c-0.983-0.114-1.982-0.172-2.968-0.172c-6.556-0.001-12.736,2.488-17.482,7.013
		c-2.235-3.601-3.473-7.441-3.473-11.413C92.005,28.257,120.655,12,154.568,12z M244.815,152.752
		c0,41.827-4.698,80.477-19.715,103.866c-0.457,0.712-0.571,1.506-0.681,2.345l-2.422,19.569c-0.367,2.793-2.724,4.635-5.542,4.638
		l-98.43-0.17c-0.003,0-0.005,0-0.007,0c-2.938,0-5.381-2.018-5.602-4.948l-1.411-18.655c0-0.01-0.004,0.043-0.01,0.035
		l-56.401-74.359c-5.152-5.151-5.152-13.566,0-18.719c2.576-2.576,5.972-3.856,9.367-3.856c3.396,0,6.791,1.292,9.367,3.868
		l15.875,14.991c1.236,1.168,2.343,1.692,3.801,1.692c3.167,0,5.811-2.468,5.811-6.163V77.281c0-7.36,6.403-13.382,13.763-13.381
		c0.521,0,0.976,0.03,1.509,0.092c6.812,0.793,11.728,6.838,11.728,13.695v68.614c0,3.563,2.897,6.45,6.46,6.45
		c3.606,0,6.54-2.924,6.54-6.53V58.013c0-7.36,6.274-13.382,13.634-13.382c0.52,0,1.041,0.03,1.573,0.093
		c6.811,0.792,11.793,6.837,11.793,13.694v87.796c0,3.61,2.437,6.538,6.048,6.538c3.558,0,5.952-2.885,5.952-6.442V77.281
		c0-7.36,6.645-13.382,14.005-13.381c0.521,0,0.855,0.03,1.387,0.092c6.812,0.793,11.607,6.838,11.607,13.695v68.376
		c0,3.694,4.005,6.936,7.698,6.936h0.111c3.414,0,5.19-3.016,5.19-6.429v-42.39c0-6.856,5.485-12.901,12.295-13.694
		c0.533-0.063,0.931-0.092,1.452-0.092c7.36,0,13.253,6.021,13.253,13.381V152.752z"/>
	<rect x="152.698" y="32.63" width="0.002" height="0.001"/>
</g>
<g>
</g>
<g>
</g>
<g>
</g>
<g>
</g>
<g>
</g>
<g>
</g>
<g>
</g>
<g>
</g>
<g>
</g>
<g>
</g>
<g>
</g>
<g>
</g>
<g>
</g>
<g>
</g>
<g>
</g>
</svg>
