<?xml version="1.0" encoding="iso-8859-1"?>
<!-- Generator: Adobe Illustrator 19.0.0, SVG Export Plug-In . SVG Version: 6.00 Build 0)  -->
<svg version="1.1" id="Layer_1" xmlns="http://www.w3.org/2000/svg" xmlns:xlink="http://www.w3.org/1999/xlink" x="0px" y="0px"
	 viewBox="0 0 512 512" style="enable-background:new 0 0 512 512;" xml:space="preserve">
<g>
	<g>
		<path d="M304.056,150h-284C9.028,150,0,157.744,0,168.768v176C0,355.796,9.028,366,20.056,366H116v40.524l-21.856,14.808
			c-1.456,0.988-2.088,3.484-1.572,5.164S94.648,430,96.404,430h131.292c0.024,0,0.06,0,0.08,0c2.212,0,4-2.468,4-4.676
			c0-1.592-0.964-3.312-2.316-3.952L208,406.524V366h96.056C315.084,366,324,355.796,324,344.768v-176
			C324,157.744,315.084,150,304.056,150z M172,374.536c0,5.604-4.392,10.168-10,10.168c-5.608,0-10-4.56-10-10.168V366h20V374.536z
			 M300,342H24V174h276V342z"/>
	</g>
</g>
<g>
	<g>
		<path d="M484,82H368c-15.464,0-28,12.536-28,28v292c0,15.464,12.536,28,28,28h116c15.464,0,28-12.536,28-28V110
			C512,94.536,499.464,82,484,82z M409.984,109.02c5.516,0,10,4.488,10,10c0,5.512-4.484,10-10,10s-10-4.488-10-10
			C399.984,113.508,404.468,109.02,409.984,109.02z M378.056,105.02c7.72,0,14,6.28,14,14c0,7.72-6.28,14-14,14
			c-7.72,0-14-6.28-14-14C364.056,111.3,370.336,105.02,378.056,105.02z M479.8,398H372.064c-4.416,0-8-3.584-8-8
			c0-4.416,3.584-8,8-8h107.74c4.416,0,8,3.584,8,8C487.804,394.416,484.22,398,479.8,398z M479.8,370H372.064c-4.416,0-8-3.584-8-8
			c0-4.416,3.584-8,8-8h107.74c4.416,0,8,3.584,8,8C487.804,366.416,484.22,370,479.8,370z M479.8,342H372.064c-4.416,0-8-3.584-8-8
			c0-4.416,3.584-8,8-8h107.74c4.416,0,8,3.584,8,8C487.804,338.416,484.22,342,479.8,342z M479.8,314H372.064c-4.416,0-8-3.584-8-8
			c0-4.416,3.584-8,8-8h107.74c4.416,0,8,3.584,8,8C487.804,310.416,484.22,314,479.8,314z M479.8,286H372.064c-4.416,0-8-3.584-8-8
			c0-4.416,3.584-8,8-8h107.74c4.416,0,8,3.584,8,8C487.804,282.416,484.22,286,479.8,286z M488,250c0,2.208-1.788,4-4,4H368
			c-2.212,0-4-1.792-4-4v-32c0-2.208,1.788-4,4-4h116c2.212,0,4,1.792,4,4V250z"/>
	</g>
</g>
<g>
</g>
<g>
</g>
<g>
</g>
<g>
</g>
<g>
</g>
<g>
</g>
<g>
</g>
<g>
</g>
<g>
</g>
<g>
</g>
<g>
</g>
<g>
</g>
<g>
</g>
<g>
</g>
<g>
</g>
</svg>
